<svg xmlns="http://www.w3.org/2000/svg" viewBox="0 0 511.999 511.999" style="enable-background:new 0 0 511.999 511.999" xml:space="preserve"><path style="fill:#f7b239" d="M362.909 45.287h48.631c21.901 0 39.667 17.767 39.667 39.667v378.213c0 21.901-17.767 39.667-39.667 39.667H102.896c-21.901 0-39.667-17.767-39.667-39.667V84.954c0-21.901 17.767-39.667 39.667-39.667H362.909z"/><path style="fill:#e09b2d" d="M85.834 463.168V84.954c0-21.901 17.767-39.667 39.667-39.667h-22.606c-21.901 0-39.667 17.767-39.667 39.667v378.213c0 21.901 17.767 39.667 39.667 39.667h22.606c-21.9.001-39.667-17.766-39.667-39.666z"/><path style="fill:#e09b2d" d="M378.231 110.098h41.473v253.935L309.74 473.997H125.383V110.098h41.473z"/><path style="fill:#f2f2f2" d="M362.905 92.111h41.474v253.935L294.415 456.01H110.058V92.111h41.473z"/><path style="fill:#ccc" d="M294.415 456.01V346.046h109.964z"/><path d="M160.692 99.002h193.052V18.329H160.692v80.673z"/><path style="fill:gray" d="M151.523 9.165h211.386v99.003H151.523z"/><path style="fill:#666" d="M151.523 9.165h24.231v99.003h-24.231z"/><path d="M408.95 36.122h-39.467V9.165A9.165 9.165 0 0 0 360.318 0H148.937a9.164 9.164 0 0 0-9.165 9.165v26.958h-39.467c-26.926 0-48.833 21.906-48.833 48.832v378.213c0 26.926 21.907 48.832 48.833 48.832H408.95c26.926 0 48.832-21.906 51.576-54.331V79.455c-2.744-21.427-24.65-43.333-51.576-43.333zM158.102 18.329h193.052v80.672H158.102V18.329zm202.216 99.002a9.164 9.164 0 0 0 9.165-9.165v-6.891h23.14v235.606H291.824a9.164 9.164 0 0 0-9.165 9.165v100.799H116.632V101.276h23.141v6.891a9.165 9.165 0 0 0 9.165 9.165h211.38zm19.344 237.88-78.674 78.674v-78.674h78.674zm59.79 107.957c0 16.819-13.683 30.503-30.503 30.503H100.306c-16.82 0-30.504-13.683-30.504-30.503V84.954c0-16.819 13.683-30.502 30.504-30.502h39.467v28.495h-32.305a9.164 9.164 0 0 0-9.165 9.165V456.01a9.165 9.165 0 0 0 9.165 9.165h184.357c2.43 0 4.761-.965 6.481-2.685L408.27 352.526a9.165 9.165 0 0 0 2.683-6.48V92.111a9.165 9.165 0 0 0-9.165-9.165h-32.305V54.452h39.467c16.819 0 30.503 13.683 30.503 30.502v378.214z"/><path d="m243.845 251.897-18.878-18.878 18.878-18.879a9.163 9.163 0 0 0-.001-12.96c-3.578-3.58-9.381-3.579-12.96 0l-18.877 18.878-18.878-18.878a9.165 9.165 0 0 0-12.961 12.96l18.879 18.879-18.879 18.878a9.165 9.165 0 0 0 12.961 12.96l18.878-18.878 18.877 18.878a9.136 9.136 0 0 0 6.481 2.685 9.133 9.133 0 0 0 6.481-2.685c3.577-3.578 3.577-9.381-.001-12.96zM334.27 200.248a9.165 9.165 0 0 0-12.961 0l-18.877 18.878-18.878-18.878a9.165 9.165 0 0 0-12.961 12.96l22.676 22.675v23.422c0 5.061 4.102 9.165 9.165 9.165s9.165-4.103 9.165-9.165v-23.422l22.675-22.675c3.574-3.578 3.574-9.381-.004-12.96z"/></svg>